<svg width="117" height="35" viewBox="0 0 117 35" fill="none" xmlns="http://www.w3.org/2000/svg">
<path d="M3.96731 34.1574C3.0551 34.1574 2.599 33.9194 2.599 33.4435V17.1725C2.599 16.3 2.56926 15.596 2.50976 15.0606C2.45027 14.5252 2.39078 14.1186 2.33129 13.841C2.2718 13.5634 2.24205 13.3849 2.24205 13.3056C2.24205 13.1469 2.32137 13.0181 2.48002 12.9189C2.65849 12.8197 2.86671 12.7404 3.10468 12.6809C3.34265 12.6214 3.58061 12.5818 3.81858 12.5619C4.05654 12.5421 4.23502 12.5322 4.354 12.5322C4.6118 12.5322 4.8101 12.6413 4.94892 12.8594C5.08773 13.0775 5.18688 13.3453 5.24637 13.6625C5.3257 13.96 5.3951 14.2277 5.45459 14.4657C6.06934 13.7518 6.75349 13.2064 7.50705 12.8297C8.26061 12.4331 9.07366 12.2347 9.9462 12.2347C11.136 12.2347 12.1573 12.5719 13.01 13.2461C13.8627 13.9203 14.5171 14.8623 14.9732 16.0719C15.4293 17.2618 15.6574 18.6499 15.6574 20.2364C15.6574 22.7747 15.0922 24.7379 13.9619 26.126C12.8514 27.5142 11.3839 28.2082 9.55951 28.2082C8.7068 28.2082 7.96315 28.0793 7.32858 27.8215C6.71383 27.5439 6.15858 27.2167 5.66281 26.8399V33.4435C5.66281 33.9194 5.20671 34.1574 4.29451 34.1574H3.96731ZM8.87536 25.6203C10.085 25.6203 10.9873 25.1742 11.5822 24.2818C12.197 23.3696 12.5043 22.0707 12.5043 20.3851C12.5043 18.6003 12.2168 17.232 11.6417 16.2802C11.0865 15.3085 10.2833 14.8226 9.23231 14.8226C8.59773 14.8226 7.97307 15.0011 7.35832 15.3581C6.74358 15.715 6.17841 16.1909 5.66281 16.7858V24.5197C6.11892 24.8569 6.61468 25.1246 7.1501 25.3229C7.68553 25.5212 8.26061 25.6203 8.87536 25.6203ZM19.4126 28.0595C18.5004 28.0595 18.0443 27.8116 18.0443 27.3158V13.1271C18.0443 12.6314 18.5004 12.3835 19.4126 12.3835H19.71C20.6222 12.3835 21.0783 12.6314 21.0783 13.1271V27.3158C21.0783 27.8116 20.6222 28.0595 19.71 28.0595H19.4126ZM19.5613 10.4797C19.006 10.4797 18.5995 10.4203 18.3417 10.3013C18.1037 10.1625 17.9848 9.97407 17.9848 9.7361V7.80263C17.9848 7.56466 18.1037 7.38619 18.3417 7.2672C18.5995 7.12839 19.006 7.05898 19.5613 7.05898C20.1165 7.05898 20.5132 7.12839 20.7511 7.2672C21.0089 7.38619 21.1378 7.56466 21.1378 7.80263V9.7361C21.1378 9.97407 21.0089 10.1625 20.7511 10.3013C20.5132 10.4203 20.1165 10.4797 19.5613 10.4797ZM30.6757 28.2082C28.2366 28.2082 26.3924 27.5836 25.143 26.3342C23.9135 25.0651 23.2988 23.0225 23.2988 20.2066C23.2988 18.7193 23.4872 17.47 23.864 16.4586C24.2407 15.4275 24.7563 14.6045 25.4107 13.9897C26.085 13.375 26.8584 12.9288 27.7309 12.6512C28.6035 12.3736 29.5355 12.2347 30.527 12.2347C31.2806 12.2347 32.0044 12.3042 32.6985 12.443C33.4124 12.5818 33.9974 12.7702 34.4535 13.0081C34.9096 13.2461 35.1376 13.5138 35.1376 13.8113C35.1376 13.9699 35.0682 14.198 34.9294 14.4954C34.7906 14.7929 34.6319 15.0606 34.4535 15.2986C34.2948 15.5167 34.1362 15.6258 33.9775 15.6258C33.9577 15.6258 33.918 15.6158 33.8585 15.596C33.7991 15.5564 33.7098 15.5167 33.5908 15.477C33.333 15.3581 32.9463 15.2093 32.4307 15.0308C31.935 14.8524 31.3103 14.7631 30.5568 14.7631C29.2876 14.7631 28.2961 15.1796 27.5822 16.0125C26.8683 16.8453 26.5113 18.2136 26.5113 20.1174C26.5113 22.0409 26.8286 23.4489 27.4632 24.3413C28.0978 25.2336 29.1785 25.6798 30.7055 25.6798C31.4987 25.6798 32.163 25.5906 32.6985 25.4121C33.2537 25.2138 33.6702 25.0453 33.9478 24.9064C34.0469 24.8668 34.1263 24.837 34.1857 24.8172C34.2452 24.7974 34.2948 24.7875 34.3345 24.7875C34.4931 24.7875 34.6617 24.9064 34.8402 25.1444C35.0186 25.3625 35.1674 25.6104 35.2863 25.8881C35.4252 26.1458 35.4946 26.3541 35.4946 26.5127C35.4946 26.7705 35.3458 26.9986 35.0484 27.1969C34.7509 27.3952 34.3642 27.5736 33.8883 27.7323C33.4124 27.8711 32.8868 27.9802 32.3118 28.0595C31.7565 28.1586 31.2112 28.2082 30.6757 28.2082ZM38.5688 28.0595C37.6566 28.0595 37.2005 27.8116 37.2005 27.3158V6.34508C37.2005 5.84932 37.6566 5.60144 38.5688 5.60144H38.896C39.7884 5.60144 40.2346 5.84932 40.2346 6.34508V19.225H40.3536L45.4401 12.8297C45.5987 12.6512 45.8268 12.5322 46.1243 12.4727C46.4217 12.4132 46.739 12.3835 47.0761 12.3835H47.4926C48.3056 12.3835 48.7121 12.5223 48.7121 12.7999C48.7121 12.9586 48.613 13.1569 48.4147 13.3948L42.5548 20.7123V18.7788L49.0691 27.1076C49.2277 27.3258 49.3071 27.5042 49.3071 27.6431C49.3071 27.9207 48.8311 28.0595 47.8793 28.0595H47.4628C47.1059 28.0595 46.7687 28.0397 46.4515 28C46.154 27.9405 45.9359 27.8116 45.7971 27.6133L40.3536 20.6231L40.2346 20.6528V27.3158C40.2346 27.8116 39.7884 28.0595 38.896 28.0595H38.5688ZM57.1 28L55.8507 26.6912L55.3747 26.2153L52.9504 23.5381C52.653 23.2208 52.3803 22.9085 52.1324 22.6011C51.8945 22.2839 51.6912 21.9814 51.5226 21.6939C51.364 21.4064 51.2351 21.1287 51.1359 20.861C51.0467 20.5933 51.0021 20.3405 51.0021 20.1025C51.0021 19.5869 51.1359 19.1258 51.4037 18.7193C51.6714 18.3128 52.0432 17.9955 52.5191 17.7675C52.9951 17.5295 53.5454 17.4105 54.17 17.4105C54.636 17.4105 55.0723 17.4948 55.4788 17.6633C55.8854 17.822 56.2324 18.05 56.5199 18.3475C56.8174 18.635 57.0306 18.9771 57.1595 19.3737L55.7465 20.2512C55.5681 19.805 55.3549 19.4927 55.107 19.3142C54.8591 19.1258 54.5567 19.0317 54.1998 19.0317C53.9221 19.0317 53.6891 19.0763 53.5007 19.1655C53.3123 19.2448 53.1686 19.3688 53.0694 19.5373C52.9703 19.696 52.9207 19.8943 52.9207 20.1322C52.9207 20.3405 52.9901 20.5784 53.1289 20.8461C53.2677 21.1139 53.4363 21.3865 53.6346 21.6642C53.8428 21.9418 54.056 22.1996 54.2741 22.4375C54.4923 22.6755 54.6807 22.8837 54.8393 23.0622L56.5794 24.9808L57.219 25.6203L59.4201 28H57.1ZM53.1735 28.1487C52.4497 28.1487 51.7904 28 51.1954 27.7025C50.6005 27.3952 50.1296 26.9886 49.7825 26.483C49.4355 25.9773 49.262 25.422 49.262 24.8172C49.262 24.0537 49.4751 23.3844 49.9015 22.8094C50.3279 22.2343 50.9575 21.7931 51.7904 21.4857L52.9356 22.735C52.3307 22.8738 51.8746 23.0969 51.5673 23.4043C51.2698 23.7017 51.1211 24.1033 51.1211 24.609C51.1211 24.9957 51.2153 25.3378 51.4037 25.6352C51.5921 25.9228 51.8598 26.1508 52.2068 26.3194C52.5538 26.478 52.9703 26.5573 53.4561 26.5573C53.8825 26.5573 54.2741 26.4731 54.6311 26.3045C54.9979 26.1359 55.3251 25.898 55.6127 25.5906C55.9002 25.2733 56.1382 24.8965 56.3266 24.4603C56.515 24.024 56.6439 23.5431 56.7133 23.0176H58.3939C58.3146 23.6323 58.1659 24.2025 57.9477 24.728C57.7395 25.2535 57.4768 25.7294 57.1595 26.1558C56.8521 26.5722 56.4951 26.9292 56.0886 27.2266C55.6821 27.5241 55.2359 27.7521 54.7501 27.9108C54.2642 28.0694 53.7387 28.1487 53.1735 28.1487ZM61.1001 34.1574C60.1879 34.1574 59.7318 33.9194 59.7318 33.4435V17.1725C59.7318 16.3 59.702 15.596 59.6425 15.0606C59.5831 14.5252 59.5236 14.1186 59.4641 13.841C59.4046 13.5634 59.3748 13.3849 59.3748 13.3056C59.3748 13.1469 59.4542 13.0181 59.6128 12.9189C59.7913 12.8197 59.9995 12.7404 60.2375 12.6809C60.4754 12.6214 60.7134 12.5818 60.9514 12.5619C61.1893 12.5421 61.3678 12.5322 61.4868 12.5322C61.7446 12.5322 61.9429 12.6413 62.0817 12.8594C62.2205 13.0775 62.3197 13.3453 62.3792 13.6625C62.4585 13.96 62.5279 14.2277 62.5874 14.4657C63.2021 13.7518 63.8863 13.2064 64.6398 12.8297C65.3934 12.4331 66.2064 12.2347 67.079 12.2347C68.2688 12.2347 69.2901 12.5719 70.1428 13.2461C70.9955 13.9203 71.6499 14.8623 72.106 16.0719C72.5621 17.2618 72.7902 18.6499 72.7902 20.2364C72.7902 22.7747 72.225 24.7379 71.0947 26.126C69.9842 27.5142 68.5167 28.2082 66.6923 28.2082C65.8396 28.2082 65.0959 28.0793 64.4614 27.8215C63.8466 27.5439 63.2914 27.2167 62.7956 26.8399V33.4435C62.7956 33.9194 62.3395 34.1574 61.4273 34.1574H61.1001ZM66.0081 25.6203C67.2178 25.6203 68.1201 25.1742 68.715 24.2818C69.3297 23.3696 69.6371 22.0707 69.6371 20.3851C69.6371 18.6003 69.3496 17.232 68.7745 16.2802C68.2192 15.3085 67.4161 14.8226 66.3651 14.8226C65.7305 14.8226 65.1058 15.0011 64.4911 15.3581C63.8764 15.715 63.3112 16.1909 62.7956 16.7858V24.5197C63.2517 24.8569 63.7475 25.1246 64.2829 25.3229C64.8183 25.5212 65.3934 25.6203 66.0081 25.6203ZM98.0952 28.2677C97.2425 28.2677 96.4493 28.1686 95.7155 27.9703C95.0016 27.7521 94.4166 27.4943 93.9605 27.1969C93.5243 26.8994 93.3061 26.6119 93.3061 26.3342C93.3061 26.1756 93.3755 25.9674 93.5144 25.7096C93.6532 25.4319 93.8118 25.1841 93.9903 24.9659C94.1688 24.728 94.3373 24.609 94.496 24.609C94.5951 24.609 94.7835 24.7081 95.0611 24.9064C95.3388 25.0849 95.7155 25.2634 96.1915 25.4419C96.6674 25.6203 97.2227 25.7096 97.8572 25.7096C99.5825 25.7096 100.445 25.0651 100.445 23.7761C100.445 23.082 100.177 22.5764 99.642 22.2591C99.1264 21.9219 98.4621 21.6146 97.649 21.3369C97.0144 21.099 96.3898 20.8214 95.775 20.5041C95.1603 20.1669 94.6546 19.7009 94.258 19.106C93.8614 18.5111 93.6631 17.708 93.6631 16.6966C93.6631 15.8042 93.8713 15.0209 94.2877 14.3467C94.724 13.6725 95.3189 13.1569 96.0725 12.7999C96.8459 12.4231 97.7283 12.2347 98.7199 12.2347C99.3743 12.2347 100.009 12.2942 100.624 12.4132C101.258 12.5124 101.784 12.671 102.2 12.8892C102.617 13.1073 102.825 13.3552 102.825 13.6328C102.825 13.8113 102.765 14.0492 102.646 14.3467C102.527 14.6243 102.389 14.8821 102.23 15.1201C102.071 15.3382 101.913 15.4473 101.754 15.4473C101.655 15.4473 101.377 15.3283 100.921 15.0903C100.485 14.8524 99.87 14.7334 99.0768 14.7334C98.4224 14.7334 97.8672 14.8821 97.4111 15.1796C96.955 15.477 96.7269 15.9034 96.7269 16.4586C96.7269 16.9941 96.9054 17.4105 97.2623 17.708C97.6193 18.0054 98.234 18.3029 99.1066 18.6003C99.8998 18.8581 100.624 19.1853 101.278 19.5819C101.952 19.9587 102.488 20.4545 102.884 21.0692C103.301 21.684 103.509 22.4871 103.509 23.4786C103.509 24.4107 103.281 25.2336 102.825 25.9475C102.369 26.6614 101.734 27.2266 100.921 27.6431C100.108 28.0595 99.1661 28.2677 98.0952 28.2677ZM110.383 28.2677C109.53 28.2677 108.737 28.1686 108.003 27.9703C107.289 27.7521 106.704 27.4943 106.248 27.1969C105.812 26.8994 105.594 26.6119 105.594 26.3342C105.594 26.1756 105.663 25.9674 105.802 25.7096C105.941 25.4319 106.099 25.1841 106.278 24.9659C106.456 24.728 106.625 24.609 106.784 24.609C106.883 24.609 107.071 24.7081 107.349 24.9064C107.626 25.0849 108.003 25.2634 108.479 25.4419C108.955 25.6203 109.51 25.7096 110.145 25.7096C111.87 25.7096 112.733 25.0651 112.733 23.7761C112.733 23.082 112.465 22.5764 111.93 22.2591C111.414 21.9219 110.75 21.6146 109.937 21.3369C109.302 21.099 108.677 20.8214 108.063 20.5041C107.448 20.1669 106.942 19.7009 106.546 19.106C106.149 18.5111 105.951 17.708 105.951 16.6966C105.951 15.8042 106.159 15.0209 106.575 14.3467C107.012 13.6725 107.607 13.1569 108.36 12.7999C109.133 12.4231 110.016 12.2347 111.007 12.2347C111.662 12.2347 112.296 12.2942 112.911 12.4132C113.546 12.5124 114.071 12.671 114.488 12.8892C114.904 13.1073 115.112 13.3552 115.112 13.6328C115.112 13.8113 115.053 14.0492 114.934 14.3467C114.815 14.6243 114.676 14.8821 114.517 15.1201C114.359 15.3382 114.2 15.4473 114.042 15.4473C113.942 15.4473 113.665 15.3283 113.209 15.0903C112.772 14.8524 112.158 14.7334 111.364 14.7334C110.71 14.7334 110.155 14.8821 109.699 15.1796C109.243 15.477 109.014 15.9034 109.014 16.4586C109.014 16.9941 109.193 17.4105 109.55 17.708C109.907 18.0054 110.522 18.3029 111.394 18.6003C112.187 18.8581 112.911 19.1853 113.566 19.5819C114.24 19.9587 114.775 20.4545 115.172 21.0692C115.588 21.684 115.797 22.4871 115.797 23.4786C115.797 24.4107 115.568 25.2336 115.112 25.9475C114.656 26.6614 114.022 27.2266 113.209 27.6431C112.396 28.0595 111.454 28.2677 110.383 28.2677Z" fill="white"/>
<g clip-path="url(#clip0_201_657)">
<path d="M88.7027 27.7627H78.1018C77.818 27.7634 77.5371 27.6976 77.2765 27.5695C77.0159 27.4414 76.7812 27.2536 76.5867 27.0179C76.3923 26.7822 76.2424 26.5034 76.1462 26.199C76.0501 25.8945 76.0098 25.5708 76.0277 25.2478L76.7537 11.4879C76.7648 11.2811 76.8446 11.0869 76.9769 10.9448C77.1092 10.8027 77.284 10.7235 77.4658 10.7232H89.341C89.5227 10.7235 89.6975 10.8027 89.8298 10.9448C89.9621 11.0869 90.042 11.2811 90.0531 11.4879L90.779 25.2478C90.797 25.5708 90.7567 25.8945 90.6605 26.199C90.5644 26.5034 90.4144 26.7822 90.22 27.0179C90.0256 27.2536 89.7908 27.4414 89.5302 27.5695C89.2696 27.6976 88.9887 27.7634 88.705 27.7627H88.7027ZM78.1225 12.3473L77.4312 25.345C77.4268 25.4466 77.4406 25.548 77.4716 25.6433C77.5026 25.7386 77.5502 25.8258 77.6116 25.8995C77.673 25.9732 77.7469 26.0319 77.8288 26.0721C77.9107 26.1123 77.9988 26.1332 78.088 26.1334H88.6888C88.778 26.1332 88.8661 26.1123 88.948 26.0721C89.0299 26.0319 89.1038 25.9732 89.1652 25.8995C89.2266 25.8258 89.2742 25.7386 89.3052 25.6433C89.3362 25.548 89.35 25.4466 89.3456 25.345L88.6543 12.3473H78.1225Z" fill="white"/>
<path d="M87.2715 10.8625H85.8496C85.8496 10.1209 85.5913 9.40969 85.1314 8.88532C84.6716 8.36094 84.0479 8.06635 83.3976 8.06635C82.7473 8.06635 82.1236 8.36094 81.6638 8.88532C81.2039 9.40969 80.9456 10.1209 80.9456 10.8625H79.5237C79.5237 9.69086 79.9318 8.56724 80.6583 7.73879C81.3848 6.91034 82.3702 6.44492 83.3976 6.44492C84.425 6.44492 85.4104 6.91034 86.1369 7.73879C86.8634 8.56724 87.2715 9.69086 87.2715 10.8625Z" fill="white"/>
<path d="M81.9573 24.4541C81.7903 24.4518 81.6293 24.3825 81.5025 24.2585C81.3757 24.1345 81.2912 23.9636 81.2638 23.7757C81.2363 23.5878 81.2677 23.3949 81.3523 23.2307C81.437 23.0665 81.5695 22.9414 81.7269 22.8774C87.9099 20.4124 91.2077 17.929 91.7308 16.5572C91.7642 16.4862 91.7808 16.4065 91.7792 16.326C91.6917 16.234 91.293 16.0027 89.5623 16.0632C89.3869 16.05 89.2219 15.9633 89.0992 15.8199C88.9765 15.6764 88.9046 15.4862 88.8975 15.2859C88.8903 15.0856 88.9484 14.8894 89.0605 14.735C89.1726 14.5806 89.3308 14.479 89.5047 14.4496C90.9842 14.3918 92.6019 14.4338 93.0698 15.6611C93.1624 15.9084 93.2073 16.1757 93.2013 16.4446C93.1954 16.7135 93.1387 16.9777 93.0352 17.2194C92.2217 19.3481 88.1657 22.0391 82.2039 24.42C82.1239 24.4467 82.0406 24.4582 81.9573 24.4541Z" fill="white"/>
<path d="M75.2603 22.9352C74.4145 22.9352 73.7485 22.6724 73.4697 21.9339C72.912 20.4334 74.9354 18.6832 76.7421 17.4822C76.8229 17.4238 76.9132 17.3845 77.0076 17.3667C77.1019 17.3489 77.1985 17.353 77.2915 17.3787C77.3844 17.4044 77.4719 17.4512 77.5487 17.5163C77.6254 17.5814 77.6899 17.6635 77.7382 17.7576C77.7865 17.8518 77.8177 17.9561 77.8299 18.0643C77.8421 18.1725 77.8351 18.2824 77.8092 18.3874C77.7834 18.4924 77.7392 18.5904 77.6794 18.6756C77.6196 18.7607 77.5454 18.8312 77.4611 18.8829C75.9194 19.9078 75.0506 20.8381 74.8432 21.2665C75.2718 21.3873 77.1477 21.4767 84.1166 18.2128C84.203 18.1717 84.2957 18.1505 84.3893 18.1502C84.4829 18.15 84.5756 18.1708 84.6622 18.2114C84.7487 18.252 84.8274 18.3117 84.8938 18.387C84.9601 18.4623 85.0128 18.5518 85.0488 18.6503C85.0848 18.7489 85.1035 18.8545 85.1037 18.9613C85.1039 19.068 85.0857 19.1738 85.05 19.2725C85.0144 19.3712 84.9621 19.4609 84.896 19.5366C84.83 19.6122 84.7515 19.6723 84.6651 19.7133C82.5227 20.7416 80.3306 21.6296 78.0995 22.3728C77.1769 22.6924 76.2233 22.8812 75.2603 22.9352Z" fill="white"/>
</g>
<defs>
<clipPath id="clip0_201_657">
<rect width="19.8305" height="21.3178" fill="white" transform="translate(73.3729 6.44492)"/>
</clipPath>
</defs>
</svg>
